<?xml version="1.0" encoding="utf-8"?>
<!-- Generator: Adobe Illustrator 18.0.0, SVG Export Plug-In . SVG Version: 6.00 Build 0)  -->
<!DOCTYPE svg PUBLIC "-//W3C//DTD SVG 1.1//EN" "http://www.w3.org/Graphics/SVG/1.1/DTD/svg11.dtd">
<svg version="1.1" id="Layer_1" xmlns="http://www.w3.org/2000/svg" xmlns:xlink="http://www.w3.org/1999/xlink" x="0px" y="0px"
	 width="100px" height="100px" viewBox="0 0 100 100" enable-background="new 0 0 100 100" xml:space="preserve">
<path fill="#FFFFFF" d="M103.75,2.89v-5.5H-5.62v5.5h5.67v94h-5.8v5.5h107v-5.5h-1.3v-94H103.75z M4.05,37.55c0,0,0,0,0.1,0l33-0.7
	l10.9-31.3c0.3-0.8,1.1-1.4,2-1.4c0.9,0,1.7,0.6,2,1.4l10.9,31.3l33,0.7c0,0,0,0,0.1,0c1.2,0,2.1,1,2.1,2.1c0,0.7-0.3,1.3-0.8,1.7
	l-26.5,20.1l9.6,31.7c0.1,0.2,0.1,0.4,0.1,0.6c0,1.2-1,2.1-2.1,2.1c-0.5,0-0.9-0.2-1.3-0.5l-27.1-18.9l-27.2,18.9
	c-0.3,0.2-0.7,0.4-1.2,0.4c-1.2,0-2.1-1-2.1-2.1c0-0.2,0.1-0.5,0.1-0.7l9.6-31.6l-26.4-20c-0.5-0.4-0.9-1-0.9-1.7
	C1.95,38.45,2.95,37.55,4.05,37.55z"/>
</svg>
